<svg width="81" height="80" viewBox="0 0 81 80" fill="none" xmlns="http://www.w3.org/2000/svg">
<g clip-path="url(#clip0)">
<rect width="80" height="80" transform="translate(0.532166)" fill="url(#paint0_linear)"/>
<rect width="80" height="80" transform="translate(0.532166)" fill="url(#paint1_linear)"/>
<path d="M57.7526 25.3732L47.2195 35.9064L51.2978 39.9847L61.8309 29.4515L57.7526 25.3732Z" fill="#66C05D"/>
<path d="M36.4415 46.7065L25.9084 57.2397L29.9867 61.318L40.5198 50.7848L36.4415 46.7065Z" fill="#66C05D"/>
<path d="M51.0495 18.706L40.5164 29.2391L44.5947 33.3174L55.1278 22.7843L51.0495 18.706Z" fill="#66C05D"/>
<path d="M29.7676 40.0106L19.2345 50.5437L23.3128 54.622L33.8459 44.0889L29.7676 40.0106Z" fill="#66C05D"/>
<path d="M23.2897 25.3729L19.2114 29.4512L29.7446 39.9844L33.8229 35.9061L23.2897 25.3729Z" fill="#66C05D"/>
<path d="M29.9862 18.699L25.9079 22.7773L36.441 33.3104L40.5193 29.2321L29.9862 18.699Z" fill="#66C05D"/>
<path d="M51.2914 39.9809L47.2131 44.0592L57.7463 54.5923L61.8246 50.514L51.2914 39.9809Z" fill="#66C05D"/>
<path d="M44.6242 46.6841L40.5459 50.7624L51.079 61.2955L55.1573 57.2172L44.6242 46.6841Z" fill="#66C05D"/>
<path d="M55.138 65.3942L51.0716 61.3278L40.5321 71.8672L29.9927 61.3278L25.9263 65.3942L40.5321 80L55.138 65.3942Z" fill="#EFEFEF"/>
<path d="M19.2044 29.4606L15.138 25.3942L0.532166 40L15.138 54.6058L19.2044 50.5394L8.66495 40L19.2044 29.4606Z" fill="#EFEFEF"/>
<path d="M65.9264 25.3942L61.86 29.4606L72.3994 40L61.86 50.5394L65.9264 54.6058L80.5322 40L65.9264 25.3942Z" fill="#EFEFEF"/>
<path d="M51.0716 18.6722L55.138 14.6058L40.5321 0L25.9263 14.6058L29.9927 18.6722L40.5321 8.13278L51.0716 18.6722Z" fill="#EFEFEF"/>
</g>
<defs>
<linearGradient id="paint0_linear" x1="40" y1="0" x2="40" y2="80" gradientUnits="userSpaceOnUse">
<stop stop-color="white"/>
<stop offset="1" stop-color="white" stop-opacity="0"/>
</linearGradient>
<linearGradient id="paint1_linear" x1="40" y1="0" x2="40" y2="80" gradientUnits="userSpaceOnUse">
<stop stop-color="white"/>
<stop offset="1" stop-color="white" stop-opacity="0"/>
</linearGradient>
<clipPath id="clip0">
<rect width="80" height="80" fill="white" transform="translate(0.532166)"/>
</clipPath>
</defs>
</svg>
